<?xml version="1.0" encoding="UTF-8" standalone="no"?>
<!-- Generator: Adobe Illustrator 15.0.0, SVG Export Plug-In . SVG Version: 6.00 Build 0)  -->

<svg
   xmlns:dc="http://purl.org/dc/elements/1.1/"
   xmlns:cc="http://creativecommons.org/ns#"
   xmlns:rdf="http://www.w3.org/1999/02/22-rdf-syntax-ns#"
   xmlns:svg="http://www.w3.org/2000/svg"
   xmlns="http://www.w3.org/2000/svg"
   xmlns:sodipodi="http://sodipodi.sourceforge.net/DTD/sodipodi-0.dtd"
   xmlns:inkscape="http://www.inkscape.org/namespaces/inkscape"
   version="1.1"
   id="Ebene_1"
   x="0px"
   y="0px"
   width="100px"
   height="36px"
   viewBox="0 0 100 36"
   enable-background="new 0 0 100 36"
   xml:space="preserve"
   inkscape:version="0.47pre1 r21720"
   sodipodi:docname="Text.svg"
   inkscape:output_extension="org.inkscape.output.svg.inkscape"><metadata
     id="metadata18"><rdf:RDF><cc:Work
         rdf:about=""><dc:format>image/svg+xml</dc:format><dc:type
           rdf:resource="http://purl.org/dc/dcmitype/StillImage" /></cc:Work></rdf:RDF></metadata><defs
     id="defs16" /><sodipodi:namedview
     pagecolor="#ffffff"
     bordercolor="#666666"
     borderopacity="1"
     objecttolerance="10"
     gridtolerance="10"
     guidetolerance="10"
     inkscape:pageopacity="0"
     inkscape:pageshadow="2"
     inkscape:window-width="1920"
     inkscape:window-height="1152"
     id="namedview14"
     showgrid="false"
     inkscape:zoom="5.39"
     inkscape:cx="7.3283859"
     inkscape:cy="18"
     inkscape:window-x="1066"
     inkscape:window-y="549"
     inkscape:window-maximized="0"
     inkscape:current-layer="Ebene_1" /><g
     opacity="0.6"
     id="g3">
	<linearGradient
   id="SVGID_1_"
   gradientUnits="userSpaceOnUse"
   x1="49.3755"
   y1="35"
   x2="49.3755"
   y2="1.0005">
		<stop
   offset="0"
   style="stop-color:#FFFFFF"
   id="stop6" />
		<stop
   offset="1"
   style="stop-color:#000000"
   id="stop8" />
	</linearGradient>
	<path
   fill="url(#SVGID_1_)"
   d="M20.25,35c-9.374,0-17-7.626-17-17s7.626-17,17-17H78.5c9.374,0,17,7.626,17,17s-7.626,17-17,17   H20.25z"
   id="path10" />
	<path
   fill="#39444E"
   d="M93,18c0,8.284-6.716,15-15,15H20c-8.284,0-15-6.716-15-15l0,0C5,9.716,11.716,3,20,3h58   C86.284,3,93,9.716,93,18L93,18z"
   id="path12" />
</g></svg>