<?xml version="1.0" encoding="utf-8"?>
<!-- Generator: Adobe Illustrator 15.0.0, SVG Export Plug-In . SVG Version: 6.00 Build 0)  -->
<!DOCTYPE svg PUBLIC "-//W3C//DTD SVG 1.1//EN" "http://www.w3.org/Graphics/SVG/1.1/DTD/svg11.dtd">
<svg version="1.1" id="Ebene_1" xmlns="http://www.w3.org/2000/svg" xmlns:xlink="http://www.w3.org/1999/xlink" x="0px" y="0px"
	 width="70px" height="180px" viewBox="0 0 70 180" enable-background="new 0 0 70 180" xml:space="preserve">
<g>
	<g>
		<polygon fill="none" stroke="#FF6600" stroke-width="2" points="42.697,48.267 67,3.11 26.015,9.61 7.59,57.502 25.415,57.502 
			3.27,103.678 19.473,103.678 1.648,177.56 55.116,94.442 37.234,94.442 61.059,48.267 		"/>
		<linearGradient id="SVGID_1_" gradientUnits="userSpaceOnUse" x1="6.2754" y1="56.1909" x2="64.1292" y2="126.6163">
			<stop  offset="0" style="stop-color:#FFFF00"/>
			<stop  offset="1" style="stop-color:#FF7F00"/>
		</linearGradient>
		<polygon fill="url(#SVGID_1_)" points="42.697,48.267 67,3.11 26.015,9.61 7.59,57.502 25.415,57.502 3.27,103.678 
			19.473,103.678 1.648,177.56 55.116,94.442 37.234,94.442 61.059,48.267 		"/>
	</g>
	<polyline opacity="0.29" fill="none" stroke="#FF7F00" stroke-width="3" points="64.772,4.697 39.756,50 58.862,50 34.803,96 
		52.398,96 9.328,163 	"/>
	<polygon opacity="0.64" fill="#FFFFCC" points="5.832,171.354 2.5,175 19.45,102.5 4.12,102.5 26.057,56.5 7.969,56.5 25.82,10 
		63.108,3.5 63.108,6.5 28,13 12.101,53.5 30.811,53.5 8.874,99.5 23.265,99.5 5.832,171.354 	"/>
</g>
</svg>
