<?xml version="1.0" encoding="utf-8"?>
<!-- Generator: Adobe Illustrator 15.0.0, SVG Export Plug-In . SVG Version: 6.00 Build 0)  -->
<!DOCTYPE svg PUBLIC "-//W3C//DTD SVG 1.1//EN" "http://www.w3.org/Graphics/SVG/1.1/DTD/svg11.dtd">
<svg version="1.1" id="Ebene_1" xmlns="http://www.w3.org/2000/svg" xmlns:xlink="http://www.w3.org/1999/xlink" x="0px" y="0px"
	 width="30px" height="30px" viewBox="0 0 30 30" enable-background="new 0 0 30 30" xml:space="preserve">
<path fill="#FFFFFF" d="M26.397,16.214l2.606,1.708l-2.112-2.966l2.112-2.966l-2.606,1.709l-0.896,0.897h-3.066l2.997-2.998
	l-2.613,1.713h-3.821l2.713-2.713l3.009-0.628l-4.101,0.002l1.915-1.917l1.131-0.002l3.053-0.633l-3.341-0.855l-0.854-3.341
	l-0.637,3.051v1.269l-1.917,1.917V5.224l-0.638,3.058l-2.701,2.705V7.149l1.685-2.572l-2.9,2.899V4.412l0.801-0.8l1.707-2.608
	l-2.966,2.113L11.99,1.004l1.708,2.608l0.897,0.897v3.064l-2.996-2.996l1.711,2.613l0.001,3.822L10.598,8.3L9.971,5.292l0,4.1
	L8.055,7.475l0-1.131L7.419,3.292l-0.854,3.34L3.223,7.487l3.052,0.637h1.269l1.917,1.917L5.223,10.04l3.059,0.638l2.704,2.704
	L7.148,13.38l-2.57-1.685l2.899,2.901H4.412l-0.8-0.801l-2.608-1.708l2.112,2.967l-2.112,2.967l2.608-1.709l0.897-0.898h3.064
	l-2.996,2.998l2.613-1.713h3.822L8.3,19.411l-3.008,0.627h4.1l-1.917,1.918H6.344l-3.052,0.635l3.341,0.854l0.854,3.341l0.635-3.052
	v-1.268l1.917-1.918v4.238l0.638-3.06l2.703-2.703v3.838l-1.684,2.57l2.899-2.899v3.064l-0.8,0.801l-1.708,2.606l2.966-2.112
	l2.968,2.112l-1.709-2.606L15.414,25.5v-3.065l2.995,2.997l-1.711-2.613v-3.822l2.713,2.714l0.627,3.009l-0.001-4.102l1.919,1.917
	v1.131l0.635,3.052l0.854-3.34l3.343-0.854l-3.053-0.637h-1.269l-1.918-1.917l4.238,0.001l-3.059-0.639l-2.705-2.701h3.839
	l2.57,1.685l-2.899-2.901h3.064L26.397,16.214z"/>
</svg>
