<?xml version="1.0" encoding="utf-8"?>
<!-- Generator: Adobe Illustrator 15.0.0, SVG Export Plug-In . SVG Version: 6.00 Build 0)  -->
<!DOCTYPE svg PUBLIC "-//W3C//DTD SVG 1.1//EN" "http://www.w3.org/Graphics/SVG/1.1/DTD/svg11.dtd">
<svg version="1.1" id="Ebene_1" xmlns="http://www.w3.org/2000/svg" xmlns:xlink="http://www.w3.org/1999/xlink" x="0px" y="0px"
	 width="128px" height="128px" viewBox="0 0 128 128" enable-background="new 0 0 128 128" xml:space="preserve">
<radialGradient id="SVGID_1_" cx="529.2832" cy="2348.5801" r="52.6166" gradientTransform="matrix(1.2037 0 0 -0.2222 -573.098 624.589)" gradientUnits="userSpaceOnUse">
	<stop  offset="0" style="stop-color:#000000"/>
	<stop  offset="0.9018" style="stop-color:#000000;stop-opacity:0"/>
</radialGradient>
<ellipse fill="url(#SVGID_1_)" cx="64" cy="102.734" rx="64" ry="11.815"/>
<linearGradient id="SVGID_2_" gradientUnits="userSpaceOnUse" x1="520.5898" y1="259.4531" x2="526.4961" y2="259.4531" gradientTransform="matrix(1 0 0 -1 -437.8799 297.2012)">
	<stop  offset="0.2761" style="stop-color:#CCCCCC"/>
	<stop  offset="0.2911" style="stop-color:#DADADA"/>
	<stop  offset="0.3172" style="stop-color:#EBEBEB"/>
	<stop  offset="0.3496" style="stop-color:#F6F6F6"/>
	<stop  offset="0.3951" style="stop-color:#FDFDFD"/>
	<stop  offset="0.5215" style="stop-color:#FFFFFF"/>
	<stop  offset="0.5285" style="stop-color:#F6F6F6"/>
	<stop  offset="0.557" style="stop-color:#D7D7D7"/>
	<stop  offset="0.5893" style="stop-color:#BBBBBB"/>
	<stop  offset="0.6257" style="stop-color:#A5A5A5"/>
	<stop  offset="0.6683" style="stop-color:#949494"/>
	<stop  offset="0.721" style="stop-color:#898989"/>
	<stop  offset="0.7949" style="stop-color:#828282"/>
	<stop  offset="1" style="stop-color:#808080"/>
</linearGradient>
<polygon fill="url(#SVGID_2_)" points="88.616,56.455 85.659,61.379 82.71,56.455 82.71,19.039 85.659,14.118 88.616,19.039 "/>
<linearGradient id="SVGID_3_" gradientUnits="userSpaceOnUse" x1="528.4668" y1="259.4531" x2="534.373" y2="259.4531" gradientTransform="matrix(1 0 0 -1 -437.8799 297.2012)">
	<stop  offset="0.2761" style="stop-color:#CCCCCC"/>
	<stop  offset="0.2911" style="stop-color:#DADADA"/>
	<stop  offset="0.3172" style="stop-color:#EBEBEB"/>
	<stop  offset="0.3496" style="stop-color:#F6F6F6"/>
	<stop  offset="0.3951" style="stop-color:#FDFDFD"/>
	<stop  offset="0.5215" style="stop-color:#FFFFFF"/>
	<stop  offset="0.5285" style="stop-color:#F6F6F6"/>
	<stop  offset="0.557" style="stop-color:#D7D7D7"/>
	<stop  offset="0.5893" style="stop-color:#BBBBBB"/>
	<stop  offset="0.6257" style="stop-color:#A5A5A5"/>
	<stop  offset="0.6683" style="stop-color:#949494"/>
	<stop  offset="0.721" style="stop-color:#898989"/>
	<stop  offset="0.7949" style="stop-color:#828282"/>
	<stop  offset="1" style="stop-color:#808080"/>
</linearGradient>
<polygon fill="url(#SVGID_3_)" points="96.493,56.455 93.536,61.379 90.587,56.455 90.587,19.039 93.536,14.118 96.493,19.039 "/>
<linearGradient id="SVGID_4_" gradientUnits="userSpaceOnUse" x1="512.7129" y1="259.4531" x2="518.6191" y2="259.4531" gradientTransform="matrix(1 0 0 -1 -437.8799 297.2012)">
	<stop  offset="0.2761" style="stop-color:#CCCCCC"/>
	<stop  offset="0.2911" style="stop-color:#DADADA"/>
	<stop  offset="0.3172" style="stop-color:#EBEBEB"/>
	<stop  offset="0.3496" style="stop-color:#F6F6F6"/>
	<stop  offset="0.3951" style="stop-color:#FDFDFD"/>
	<stop  offset="0.5215" style="stop-color:#FFFFFF"/>
	<stop  offset="0.5285" style="stop-color:#F6F6F6"/>
	<stop  offset="0.557" style="stop-color:#D7D7D7"/>
	<stop  offset="0.5893" style="stop-color:#BBBBBB"/>
	<stop  offset="0.6257" style="stop-color:#A5A5A5"/>
	<stop  offset="0.6683" style="stop-color:#949494"/>
	<stop  offset="0.721" style="stop-color:#898989"/>
	<stop  offset="0.7949" style="stop-color:#828282"/>
	<stop  offset="1" style="stop-color:#808080"/>
</linearGradient>
<polygon fill="url(#SVGID_4_)" points="80.739,56.455 77.782,61.379 74.833,56.455 74.833,19.039 77.782,14.118 80.739,19.039 "/>
<linearGradient id="SVGID_5_" gradientUnits="userSpaceOnUse" x1="504.8369" y1="259.4531" x2="510.7422" y2="259.4531" gradientTransform="matrix(1 0 0 -1 -437.8799 297.2012)">
	<stop  offset="0.2761" style="stop-color:#CCCCCC"/>
	<stop  offset="0.2911" style="stop-color:#DADADA"/>
	<stop  offset="0.3172" style="stop-color:#EBEBEB"/>
	<stop  offset="0.3496" style="stop-color:#F6F6F6"/>
	<stop  offset="0.3951" style="stop-color:#FDFDFD"/>
	<stop  offset="0.5215" style="stop-color:#FFFFFF"/>
	<stop  offset="0.5285" style="stop-color:#F6F6F6"/>
	<stop  offset="0.557" style="stop-color:#D7D7D7"/>
	<stop  offset="0.5893" style="stop-color:#BBBBBB"/>
	<stop  offset="0.6257" style="stop-color:#A5A5A5"/>
	<stop  offset="0.6683" style="stop-color:#949494"/>
	<stop  offset="0.721" style="stop-color:#898989"/>
	<stop  offset="0.7949" style="stop-color:#828282"/>
	<stop  offset="1" style="stop-color:#808080"/>
</linearGradient>
<polygon fill="url(#SVGID_5_)" points="72.862,56.455 69.906,61.379 66.957,56.455 66.957,19.039 69.906,14.118 72.862,19.039 "/>
<linearGradient id="SVGID_6_" gradientUnits="userSpaceOnUse" x1="496.9561" y1="259.4531" x2="502.8652" y2="259.4531" gradientTransform="matrix(1 0 0 -1 -437.8799 297.2012)">
	<stop  offset="0.2761" style="stop-color:#CCCCCC"/>
	<stop  offset="0.2911" style="stop-color:#DADADA"/>
	<stop  offset="0.3172" style="stop-color:#EBEBEB"/>
	<stop  offset="0.3496" style="stop-color:#F6F6F6"/>
	<stop  offset="0.3951" style="stop-color:#FDFDFD"/>
	<stop  offset="0.5215" style="stop-color:#FFFFFF"/>
	<stop  offset="0.5285" style="stop-color:#F6F6F6"/>
	<stop  offset="0.557" style="stop-color:#D7D7D7"/>
	<stop  offset="0.5893" style="stop-color:#BBBBBB"/>
	<stop  offset="0.6257" style="stop-color:#A5A5A5"/>
	<stop  offset="0.6683" style="stop-color:#949494"/>
	<stop  offset="0.721" style="stop-color:#898989"/>
	<stop  offset="0.7949" style="stop-color:#828282"/>
	<stop  offset="1" style="stop-color:#808080"/>
</linearGradient>
<polygon fill="url(#SVGID_6_)" points="64.985,56.455 62.029,61.379 59.076,56.455 59.076,19.039 62.029,14.118 64.985,19.039 "/>
<linearGradient id="SVGID_7_" gradientUnits="userSpaceOnUse" x1="489.0791" y1="259.4531" x2="494.9883" y2="259.4531" gradientTransform="matrix(1 0 0 -1 -437.8799 297.2012)">
	<stop  offset="0.2761" style="stop-color:#CCCCCC"/>
	<stop  offset="0.2911" style="stop-color:#DADADA"/>
	<stop  offset="0.3172" style="stop-color:#EBEBEB"/>
	<stop  offset="0.3496" style="stop-color:#F6F6F6"/>
	<stop  offset="0.3951" style="stop-color:#FDFDFD"/>
	<stop  offset="0.5215" style="stop-color:#FFFFFF"/>
	<stop  offset="0.5285" style="stop-color:#F6F6F6"/>
	<stop  offset="0.557" style="stop-color:#D7D7D7"/>
	<stop  offset="0.5893" style="stop-color:#BBBBBB"/>
	<stop  offset="0.6257" style="stop-color:#A5A5A5"/>
	<stop  offset="0.6683" style="stop-color:#949494"/>
	<stop  offset="0.721" style="stop-color:#898989"/>
	<stop  offset="0.7949" style="stop-color:#828282"/>
	<stop  offset="1" style="stop-color:#808080"/>
</linearGradient>
<polygon fill="url(#SVGID_7_)" points="57.108,56.455 54.152,61.379 51.199,56.455 51.199,19.039 54.152,14.118 57.108,19.039 "/>
<linearGradient id="SVGID_8_" gradientUnits="userSpaceOnUse" x1="481.2021" y1="259.4531" x2="487.1113" y2="259.4531" gradientTransform="matrix(1 0 0 -1 -437.8799 297.2012)">
	<stop  offset="0.2761" style="stop-color:#CCCCCC"/>
	<stop  offset="0.2911" style="stop-color:#DADADA"/>
	<stop  offset="0.3172" style="stop-color:#EBEBEB"/>
	<stop  offset="0.3496" style="stop-color:#F6F6F6"/>
	<stop  offset="0.3951" style="stop-color:#FDFDFD"/>
	<stop  offset="0.5215" style="stop-color:#FFFFFF"/>
	<stop  offset="0.5285" style="stop-color:#F6F6F6"/>
	<stop  offset="0.557" style="stop-color:#D7D7D7"/>
	<stop  offset="0.5893" style="stop-color:#BBBBBB"/>
	<stop  offset="0.6257" style="stop-color:#A5A5A5"/>
	<stop  offset="0.6683" style="stop-color:#949494"/>
	<stop  offset="0.721" style="stop-color:#898989"/>
	<stop  offset="0.7949" style="stop-color:#828282"/>
	<stop  offset="1" style="stop-color:#808080"/>
</linearGradient>
<polygon fill="url(#SVGID_8_)" points="49.231,56.455 46.275,61.379 43.322,56.455 43.322,19.039 46.275,14.118 49.231,19.039 "/>
<linearGradient id="SVGID_9_" gradientUnits="userSpaceOnUse" x1="473.3252" y1="259.4531" x2="479.2354" y2="259.4531" gradientTransform="matrix(1 0 0 -1 -437.8799 297.2012)">
	<stop  offset="0.2761" style="stop-color:#CCCCCC"/>
	<stop  offset="0.2911" style="stop-color:#DADADA"/>
	<stop  offset="0.3172" style="stop-color:#EBEBEB"/>
	<stop  offset="0.3496" style="stop-color:#F6F6F6"/>
	<stop  offset="0.3951" style="stop-color:#FDFDFD"/>
	<stop  offset="0.5215" style="stop-color:#FFFFFF"/>
	<stop  offset="0.5285" style="stop-color:#F6F6F6"/>
	<stop  offset="0.557" style="stop-color:#D7D7D7"/>
	<stop  offset="0.5893" style="stop-color:#BBBBBB"/>
	<stop  offset="0.6257" style="stop-color:#A5A5A5"/>
	<stop  offset="0.6683" style="stop-color:#949494"/>
	<stop  offset="0.721" style="stop-color:#898989"/>
	<stop  offset="0.7949" style="stop-color:#828282"/>
	<stop  offset="1" style="stop-color:#808080"/>
</linearGradient>
<polygon fill="url(#SVGID_9_)" points="41.355,56.455 38.398,61.379 35.445,56.455 35.445,19.039 38.398,14.118 41.355,19.039 "/>
<linearGradient id="SVGID_10_" gradientUnits="userSpaceOnUse" x1="465.4482" y1="259.4531" x2="471.3584" y2="259.4531" gradientTransform="matrix(1 0 0 -1 -437.8799 297.2012)">
	<stop  offset="0.2761" style="stop-color:#CCCCCC"/>
	<stop  offset="0.2911" style="stop-color:#DADADA"/>
	<stop  offset="0.3172" style="stop-color:#EBEBEB"/>
	<stop  offset="0.3496" style="stop-color:#F6F6F6"/>
	<stop  offset="0.3951" style="stop-color:#FDFDFD"/>
	<stop  offset="0.5215" style="stop-color:#FFFFFF"/>
	<stop  offset="0.5285" style="stop-color:#F6F6F6"/>
	<stop  offset="0.557" style="stop-color:#D7D7D7"/>
	<stop  offset="0.5893" style="stop-color:#BBBBBB"/>
	<stop  offset="0.6257" style="stop-color:#A5A5A5"/>
	<stop  offset="0.6683" style="stop-color:#949494"/>
	<stop  offset="0.721" style="stop-color:#898989"/>
	<stop  offset="0.7949" style="stop-color:#828282"/>
	<stop  offset="1" style="stop-color:#808080"/>
</linearGradient>
<polygon fill="url(#SVGID_10_)" points="33.479,56.455 30.521,61.379 27.568,56.455 27.568,19.039 30.521,14.118 33.479,19.039 "/>
<linearGradient id="SVGID_11_" gradientUnits="userSpaceOnUse" x1="457.5723" y1="259.4531" x2="463.4814" y2="259.4531" gradientTransform="matrix(1 0 0 -1 -437.8799 297.2012)">
	<stop  offset="0.2761" style="stop-color:#CCCCCC"/>
	<stop  offset="0.2911" style="stop-color:#DADADA"/>
	<stop  offset="0.3172" style="stop-color:#EBEBEB"/>
	<stop  offset="0.3496" style="stop-color:#F6F6F6"/>
	<stop  offset="0.3951" style="stop-color:#FDFDFD"/>
	<stop  offset="0.5215" style="stop-color:#FFFFFF"/>
	<stop  offset="0.5285" style="stop-color:#F6F6F6"/>
	<stop  offset="0.557" style="stop-color:#D7D7D7"/>
	<stop  offset="0.5893" style="stop-color:#BBBBBB"/>
	<stop  offset="0.6257" style="stop-color:#A5A5A5"/>
	<stop  offset="0.6683" style="stop-color:#949494"/>
	<stop  offset="0.721" style="stop-color:#898989"/>
	<stop  offset="0.7949" style="stop-color:#828282"/>
	<stop  offset="1" style="stop-color:#808080"/>
</linearGradient>
<polygon fill="url(#SVGID_11_)" points="25.602,56.455 22.645,61.379 19.692,56.455 19.692,19.039 22.645,14.118 25.602,19.039 "/>
<linearGradient id="SVGID_12_" gradientUnits="userSpaceOnUse" x1="541.2656" y1="270.2852" x2="541.2656" y2="278.1621" gradientTransform="matrix(1 0 0 -1 -437.8799 297.2012)">
	<stop  offset="0.1656" style="stop-color:#808080"/>
	<stop  offset="0.7546" style="stop-color:#FFFFFF"/>
	<stop  offset="1" style="stop-color:#B3B3B3"/>
</linearGradient>
<rect x="98.464" y="19.039" fill="url(#SVGID_12_)" width="9.841" height="7.877"/>
<rect x="96.493" y="21.01" fill="#808080" width="1.971" height="3.938"/>
<g>
	<path fill="#808080" d="M66.957,98.694c-7.548,0-13.688-6.132-13.688-13.67c0-7.542,6.141-13.678,13.688-13.678
		c7.543,0,13.681,6.136,13.681,13.678C80.638,92.562,74.5,98.694,66.957,98.694z M66.957,75.086c-5.486,0-9.95,4.458-9.95,9.938
		c0,5.477,4.464,9.931,9.95,9.931c5.481,0,9.941-4.454,9.941-9.931C76.898,79.544,72.438,75.086,66.957,75.086z"/>
</g>
<path fill="#808080" d="M59.076,75.165l0.04-52.298c0,0,0.96-6.781,7.841-6.781c6.935,0,7.876,7.177,7.876,7.177v51.902H59.076z"/>
<radialGradient id="SVGID_13_" cx="501.7705" cy="210.4229" r="12.8892" fx="503.6368" fy="223.1762" gradientTransform="matrix(1.0084 0 0 -1.0073 -440.0667 295.1734)" gradientUnits="userSpaceOnUse">
	<stop  offset="0.2577" style="stop-color:#D60000"/>
	<stop  offset="0.5506" style="stop-color:#A80000"/>
	<stop  offset="0.7301" style="stop-color:#910000"/>
</radialGradient>
<path fill="url(#SVGID_13_)" d="M66.957,73.216c6.523,0,11.812,5.283,11.812,11.809c0,6.518-5.288,11.801-11.812,11.801
	c-6.527,0-11.819-5.283-11.819-11.801C55.138,78.499,60.43,73.216,66.957,73.216z"/>
<linearGradient id="SVGID_14_" gradientUnits="userSpaceOnUse" x1="517.6973" y1="226.0527" x2="491.0882" y2="272.1411" gradientTransform="matrix(1 0 0 -1 -437.8799 297.2012)">
	<stop  offset="0" style="stop-color:#666666"/>
	<stop  offset="1" style="stop-color:#E6E6E6"/>
</linearGradient>
<path fill="url(#SVGID_14_)" d="M66.957,18.057c-4.972,0-5.91,5.207-5.91,5.207v51.902h11.815V23.263
	C72.862,23.263,71.833,18.057,66.957,18.057z"/>
<rect x="61.047" y="35.778" fill="#BA0000" width="11.815" height="41.351"/>
<rect x="64.36" y="24.609" opacity="0.7" fill="#FFFFFF" enable-background="new    " width="2.605" height="48.618"/>
<linearGradient id="SVGID_15_" gradientUnits="userSpaceOnUse" x1="506.3105" y1="210.8691" x2="500.0767" y2="221.6666" gradientTransform="matrix(1 0 0 -1 -437.8799 297.2012)">
	<stop  offset="0" style="stop-color:#FDFDFE;stop-opacity:0.22"/>
	<stop  offset="0.9104" style="stop-color:#FDFDFE;stop-opacity:0.9301"/>
	<stop  offset="1" style="stop-color:#FDFDFE"/>
</linearGradient>
<path opacity="0.74" fill="url(#SVGID_15_)" enable-background="new    " d="M76.645,79.631c2.133,3.589-3.939,1.497-8.844,4.411
	c-4.9,2.902-8.692,6.957-10.826,3.373c-2.123-3.59,0.127-8.858,5.025-11.766C66.895,72.74,74.519,76.046,76.645,79.631z"/>
<linearGradient id="SVGID_16_" gradientUnits="userSpaceOnUse" x1="498.9951" y1="274.2734" x2="508.1621" y2="274.2734" gradientTransform="matrix(1 0 0 -1 -437.8799 297.2012)">
	<stop  offset="0" style="stop-color:#FDFDFE;stop-opacity:0"/>
	<stop  offset="0.9104" style="stop-color:#FDFDFE;stop-opacity:0.9104"/>
	<stop  offset="1" style="stop-color:#FDFDFE"/>
</linearGradient>
<path opacity="0.74" fill="url(#SVGID_16_)" enable-background="new    " d="M69.983,19.758c0.897,1.886-0.291,4.828-2.657,6.576
	c-2.368,1.752-5.015,1.638-5.913-0.241c-0.895-1.884,0.297-4.826,2.665-6.578C66.443,17.772,69.089,17.881,69.983,19.758z"/>
</svg>
