<?xml version="1.0" encoding="utf-8"?>
<!-- Generator: Adobe Illustrator 15.0.0, SVG Export Plug-In . SVG Version: 6.00 Build 0)  -->
<!DOCTYPE svg PUBLIC "-//W3C//DTD SVG 1.1//EN" "http://www.w3.org/Graphics/SVG/1.1/DTD/svg11.dtd">
<svg version="1.1" id="Ebene_1" xmlns="http://www.w3.org/2000/svg" xmlns:xlink="http://www.w3.org/1999/xlink" x="0px" y="0px"
	 width="128px" height="128px" viewBox="0 0 128 128" enable-background="new 0 0 128 128" xml:space="preserve">
<g>
	
		<radialGradient id="SVGID_1_" cx="796.4326" cy="189.9199" r="26.7197" gradientTransform="matrix(1.2037 0 0 -0.2222 -554.666 625.2001)" gradientUnits="userSpaceOnUse">
		<stop  offset="0" style="stop-color:#000000"/>
		<stop  offset="0.9018" style="stop-color:#000000;stop-opacity:0"/>
	</radialGradient>
	<ellipse fill="url(#SVGID_1_)" cx="404" cy="583" rx="32.5" ry="6"/>
	
		<radialGradient id="SVGID_2_" cx="854.5869" cy="189.9199" r="26.7197" gradientTransform="matrix(1.2037 0 0 -0.2222 -554.666 625.2001)" gradientUnits="userSpaceOnUse">
		<stop  offset="0" style="stop-color:#000000"/>
		<stop  offset="0.9018" style="stop-color:#000000;stop-opacity:0"/>
	</radialGradient>
	<ellipse fill="url(#SVGID_2_)" cx="474" cy="583" rx="32.5" ry="6"/>
	
		<linearGradient id="SVGID_3_" gradientUnits="userSpaceOnUse" x1="820.4531" y1="-250.4053" x2="862.8799" y2="-250.4053" gradientTransform="matrix(1 0 0 -1 -437.8799 298.2012)">
		<stop  offset="0" style="stop-color:#754C24"/>
		<stop  offset="1" style="stop-color:#42210B"/>
	</linearGradient>
	<polygon fill="url(#SVGID_3_)" points="403.787,541 423,560.213 425,558.213 403.787,537 382.573,558.213 384.573,560.213 	"/>
	
		<linearGradient id="SVGID_4_" gradientUnits="userSpaceOnUse" x1="855.3262" y1="-284.3516" x2="827.718" y2="-256.7433" gradientTransform="matrix(1 0 0 -1 -437.8799 298.2012)">
		<stop  offset="0" style="stop-color:#666666"/>
		<stop  offset="1" style="stop-color:#CCCCCC"/>
	</linearGradient>
	<path fill="url(#SVGID_4_)" d="M403.787,541L387,557.784V580h33v-22.787L403.787,541z"/>
	<g>
		
			<image overflow="visible" enable-background="new    " width="18" height="24" xlink:href="152F2E1E.png"  transform="matrix(1 0 0 1 391 541)">
		</image>
		<g>
			<polygon fill="#FFFDDE" points="403,547 397,553 397,559 403,559 			"/>
		</g>
	</g>
	<g>
		
			<image overflow="visible" enable-background="new    " width="18" height="24" xlink:href="152F2E1F.png"  transform="matrix(1 0 0 1 399 541)">
		</image>
		<g>
			<polygon fill="#FFFDDE" points="411,553 405,547 405,559 411,559 			"/>
		</g>
	</g>
	<g>
		
			<image overflow="visible" enable-background="new    " width="18" height="27" xlink:href="152F2E1A.png"  transform="matrix(1 0 0 1 391.001 558)">
		</image>
		<g>
			<rect x="397" y="564" fill="#FFFDDE" width="6" height="15"/>
		</g>
	</g>
	<g>
		
			<image overflow="visible" enable-background="new    " width="18" height="27" xlink:href="152F2E15.png"  transform="matrix(1 0 0 1 399.001 558)">
		</image>
		<g>
			<rect x="405" y="564" fill="#FFFDDE" width="6" height="15"/>
		</g>
	</g>
	<line fill="none" stroke="#42210B" x1="384.573" y1="559.713" x2="403.787" y2="540.5"/>
	<line opacity="0.58" fill="none" stroke="#C69C6D" enable-background="new    " x1="403.787" y1="540.5" x2="423" y2="559.713"/>
	
		<linearGradient id="SVGID_5_" gradientUnits="userSpaceOnUse" x1="890.4531" y1="-250.4053" x2="932.8799" y2="-250.4053" gradientTransform="matrix(1 0 0 -1 -437.8799 298.2012)">
		<stop  offset="0" style="stop-color:#754C24"/>
		<stop  offset="1" style="stop-color:#42210B"/>
	</linearGradient>
	<polygon fill="url(#SVGID_5_)" points="473.787,541 493,560.213 495,558.213 473.787,537 452.573,558.213 454.573,560.213 	"/>
	
		<linearGradient id="SVGID_6_" gradientUnits="userSpaceOnUse" x1="925.3271" y1="-284.3511" x2="897.7195" y2="-256.7436" gradientTransform="matrix(1 0 0 -1 -437.8799 298.2012)">
		<stop  offset="0" style="stop-color:#666666"/>
		<stop  offset="1" style="stop-color:#CCCCCC"/>
	</linearGradient>
	<path fill="url(#SVGID_6_)" d="M473.787,541L457,557.784V580h33v-22.787L473.787,541z"/>
	<polygon fill="#4D4D4D" points="473,547 467,553 467,559 473,559 	"/>
	<polygon fill="#4D4D4D" points="481,553 475,547 475,559 481,559 	"/>
	<rect x="467" y="564" fill="#4D4D4D" width="6" height="15"/>
	<rect x="475" y="564" fill="#4D4D4D" width="6" height="15"/>
	<line fill="none" stroke="#42210B" x1="454.573" y1="559.713" x2="473.787" y2="540.5"/>
	<line opacity="0.58" fill="none" stroke="#C69C6D" enable-background="new    " x1="473.787" y1="540.5" x2="493" y2="559.713"/>
</g>
<g>
	<path fill="#808080" d="M54.691,73.004l0.046-61.805c0,0,1.137-8.021,9.263-8.021c8.199,0,9.309,8.487,9.309,8.487v61.339H54.691z"
		/>
	
		<radialGradient id="SVGID_7_" cx="577.7441" cy="2328.0195" r="62.1927" gradientTransform="matrix(1.0185 0 0 -0.2222 -524.4316 625.2001)" gradientUnits="userSpaceOnUse">
		<stop  offset="0" style="stop-color:#000000"/>
		<stop  offset="0.9018" style="stop-color:#000000;stop-opacity:0"/>
	</radialGradient>
	<ellipse fill="url(#SVGID_7_)" cx="64" cy="107.914" rx="64" ry="13.964"/>
	<g>
		<path fill="#808080" d="M64,100.95c-8.993,0-16.31-7.31-16.31-16.296S55.007,68.358,64,68.358c8.992,0,16.309,7.31,16.309,16.296
			S72.992,100.95,64,100.95z M64,73.05c-6.406,0-11.618,5.207-11.618,11.604S57.594,96.259,64,96.259
			c6.406,0,11.617-5.207,11.617-11.604S70.406,73.05,64,73.05z"/>
	</g>
	
		<radialGradient id="SVGID_8_" cx="498.6572" cy="212.1094" r="15.2331" fx="500.8632" fy="227.1817" gradientTransform="matrix(1.0084 0 0 -1.0073 -440.0713 296.1768)" gradientUnits="userSpaceOnUse">
		<stop  offset="0.2577" style="stop-color:#D60000"/>
		<stop  offset="0.5506" style="stop-color:#A80000"/>
		<stop  offset="0.7301" style="stop-color:#910000"/>
	</radialGradient>
	<path fill="url(#SVGID_8_)" d="M64,70.704c7.713,0,13.963,6.245,13.963,13.95S71.713,98.604,64,98.604
		c-7.708,0-13.964-6.245-13.964-13.95S56.292,70.704,64,70.704z"/>
	
		<linearGradient id="SVGID_9_" gradientUnits="userSpaceOnUse" x1="517.0781" y1="229.9434" x2="485.6314" y2="284.4108" gradientTransform="matrix(1 0 0 -1 -437.8799 298.2012)">
		<stop  offset="0" style="stop-color:#666666"/>
		<stop  offset="1" style="stop-color:#E6E6E6"/>
	</linearGradient>
	<path fill="url(#SVGID_9_)" d="M64,5.512c-5.873,0-6.981,6.154-6.981,6.154v61.337H70.98V11.667
		C70.98,11.667,69.764,5.512,64,5.512z"/>
	<rect x="57.019" y="26.458" fill="#BA0000" width="13.961" height="48.873"/>
	<rect x="60.937" y="13.262" opacity="0.7" fill="#FFFFFF" enable-background="new    " width="3.077" height="57.458"/>
	
		<linearGradient id="SVGID_10_" gradientUnits="userSpaceOnUse" x1="480.4492" y1="155.7109" x2="474.0169" y2="166.8522" gradientTransform="matrix(1.1279 0.0104 -0.0104 -1.1393 -474.5312 258.6094)">
		<stop  offset="0" style="stop-color:#FDFDFE;stop-opacity:0.22"/>
		<stop  offset="0.9104" style="stop-color:#FDFDFE;stop-opacity:0.9301"/>
		<stop  offset="1" style="stop-color:#FDFDFE"/>
	</linearGradient>
	<path opacity="0.74" fill="url(#SVGID_10_)" enable-background="new    " d="M75.455,78.288c2.521,4.239-4.66,1.769-10.449,5.207
		c-5.796,3.432-10.278,8.229-12.802,3.986c-2.509-4.241,0.15-10.468,5.942-13.904C63.932,70.145,72.941,74.045,75.455,78.288z"/>
	
		<linearGradient id="SVGID_11_" gradientUnits="userSpaceOnUse" x1="484.6523" y1="266.3711" x2="496.6318" y2="266.3711" gradientTransform="matrix(1.0426 -0.0014 0.0014 -1.0411 -448.5684 289.4775)">
		<stop  offset="0" style="stop-color:#FDFDFE;stop-opacity:0"/>
		<stop  offset="0.9104" style="stop-color:#FDFDFE;stop-opacity:0.9104"/>
		<stop  offset="1" style="stop-color:#FDFDFE"/>
	</linearGradient>
	<path opacity="0.74" fill="url(#SVGID_11_)" enable-background="new    " d="M69.186,7.862c1.229,2.15-0.4,5.498-3.621,7.491
		c-3.228,1.99-6.836,1.865-8.059-0.279c-1.219-2.144,0.404-5.499,3.632-7.489C64.359,5.594,67.969,5.724,69.186,7.862z"/>
</g>
<radialGradient id="SVGID_12_" cx="704.4033" cy="1000" r="26.7241" gradientTransform="matrix(1.0185 0 0 -0.2222 -524.4316 625.2001)" gradientUnits="userSpaceOnUse">
	<stop  offset="0" style="stop-color:#000000"/>
	<stop  offset="0.9018" style="stop-color:#000000;stop-opacity:0"/>
</radialGradient>
<ellipse fill="url(#SVGID_12_)" cx="193" cy="403" rx="27.5" ry="6"/>
<radialGradient id="SVGID_13_" cx="774.1123" cy="1000" r="26.723" gradientTransform="matrix(1.0185 0 0 -0.2222 -524.4316 625.2001)" gradientUnits="userSpaceOnUse">
	<stop  offset="0" style="stop-color:#000000"/>
	<stop  offset="0.9018" style="stop-color:#000000;stop-opacity:0"/>
</radialGradient>
<ellipse fill="url(#SVGID_13_)" cx="264" cy="403" rx="27.5" ry="6"/>
<g>
	<ellipse fill="none" stroke="#808080" stroke-width="2.0157" cx="264" cy="393.006" rx="6" ry="5.994"/>
	
		<radialGradient id="SVGID_14_" cx="697.6846" cy="-95.2168" r="6.5455" fx="698.6324" fy="-88.7404" gradientTransform="matrix(1.0084 0 0 -1.0073 -440.0713 296.1768)" gradientUnits="userSpaceOnUse">
		<stop  offset="0.2577" style="stop-color:#D60000"/>
		<stop  offset="0.5506" style="stop-color:#A80000"/>
		<stop  offset="0.7301" style="stop-color:#910000"/>
	</radialGradient>
	<ellipse fill="url(#SVGID_14_)" cx="264" cy="393.006" rx="6" ry="5.994"/>
</g>
<path fill="#808080" d="M260,388l0.02-26.557c0,0,0.488-3.446,3.98-3.446c3.523,0,4,3.646,4,3.646V388H260z"/>
<linearGradient id="SVGID_15_" gradientUnits="userSpaceOnUse" x1="708.4111" y1="-87.7598" x2="694.8984" y2="-64.3551" gradientTransform="matrix(1 0 0 -1 -437.8799 298.2012)">
	<stop  offset="0" style="stop-color:#666666"/>
	<stop  offset="1" style="stop-color:#E6E6E6"/>
</linearGradient>
<path fill="url(#SVGID_15_)" d="M264,359c-2.523,0-3,2.645-3,2.645V388h6v-26.355C267,361.645,266.477,359,264,359z"/>
<rect x="261" y="368" fill="#BA0000" width="6" height="21"/>
<rect x="262.684" y="362.33" opacity="0.7" fill="#FFFFFF" enable-background="new    " width="1.321" height="24.688"/>
<linearGradient id="SVGID_16_" gradientUnits="userSpaceOnUse" x1="654.4111" y1="-112.5752" x2="651.6475" y2="-107.7884" gradientTransform="matrix(1.1279 0.0104 -0.0104 -1.1393 -474.5312 258.6094)">
	<stop  offset="0" style="stop-color:#FDFDFE;stop-opacity:0.22"/>
	<stop  offset="0.9104" style="stop-color:#FDFDFE;stop-opacity:0.9301"/>
	<stop  offset="1" style="stop-color:#FDFDFE"/>
</linearGradient>
<path opacity="0.74" fill="url(#SVGID_16_)" enable-background="new    " d="M268.922,390.271c1.083,1.821-2.003,0.76-4.49,2.237
	c-2.49,1.475-4.416,3.536-5.5,1.713c-1.078-1.822,0.064-4.498,2.553-5.975C263.971,386.771,267.842,388.447,268.922,390.271z"/>
<linearGradient id="SVGID_17_" gradientUnits="userSpaceOnUse" x1="680.7041" y1="-70.1577" x2="685.8516" y2="-70.1577" gradientTransform="matrix(1.0426 -0.0014 0.0014 -1.0411 -448.5684 289.4775)">
	<stop  offset="0" style="stop-color:#FDFDFE;stop-opacity:0"/>
	<stop  offset="0.9104" style="stop-color:#FDFDFE;stop-opacity:0.9104"/>
	<stop  offset="1" style="stop-color:#FDFDFE"/>
</linearGradient>
<path opacity="0.74" fill="url(#SVGID_17_)" enable-background="new    " d="M266.229,360.01c0.526,0.924-0.172,2.362-1.558,3.219
	c-1.386,0.855-2.937,0.802-3.463-0.12c-0.522-0.921,0.175-2.362,1.562-3.218C264.154,359.035,265.705,359.091,266.229,360.01z"/>
<g>
	<ellipse fill="none" stroke="#808080" stroke-width="2.0157" cx="193" cy="393.006" rx="6" ry="5.994"/>
	
		<radialGradient id="SVGID_18_" cx="627.2793" cy="-95.2168" r="6.5452" fx="628.2271" fy="-88.7407" gradientTransform="matrix(1.0084 0 0 -1.0073 -440.0713 296.1768)" gradientUnits="userSpaceOnUse">
		<stop  offset="0.2577" style="stop-color:#29ABE2"/>
		<stop  offset="0.5207" style="stop-color:#1088CB"/>
		<stop  offset="0.7301" style="stop-color:#0071BC"/>
	</radialGradient>
	<ellipse fill="url(#SVGID_18_)" cx="193" cy="393.006" rx="6" ry="5.994"/>
</g>
<path fill="#808080" d="M189,388l0.02-26.557c0,0,0.488-3.446,3.98-3.446c3.523,0,4,3.646,4,3.646V388H189z"/>
<linearGradient id="SVGID_19_" gradientUnits="userSpaceOnUse" x1="637.4121" y1="-87.7598" x2="623.8994" y2="-64.3551" gradientTransform="matrix(1 0 0 -1 -437.8799 298.2012)">
	<stop  offset="0" style="stop-color:#666666"/>
	<stop  offset="1" style="stop-color:#E6E6E6"/>
</linearGradient>
<path fill="url(#SVGID_19_)" d="M193,359c-2.523,0-3,2.645-3,2.645V388h6v-26.355C196,361.645,195.477,359,193,359z"/>
<rect x="190" y="379" fill="#29ABE2" width="6" height="10"/>
<rect x="191.684" y="362.33" opacity="0.7" fill="#FFFFFF" enable-background="new    " width="1.321" height="24.688"/>
<linearGradient id="SVGID_20_" gradientUnits="userSpaceOnUse" x1="591.4561" y1="-113.1499" x2="588.6919" y2="-108.3622" gradientTransform="matrix(1.1279 0.0104 -0.0104 -1.1393 -474.5312 258.6094)">
	<stop  offset="0" style="stop-color:#FDFDFE;stop-opacity:0.22"/>
	<stop  offset="0.9104" style="stop-color:#FDFDFE;stop-opacity:0.9301"/>
	<stop  offset="1" style="stop-color:#FDFDFE"/>
</linearGradient>
<path opacity="0.74" fill="url(#SVGID_20_)" enable-background="new    " d="M197.922,390.271c1.083,1.821-2.003,0.76-4.49,2.237
	c-2.49,1.475-4.416,3.536-5.5,1.713c-1.078-1.822,0.064-4.498,2.553-5.975C192.971,386.771,196.842,388.447,197.922,390.271z"/>
<linearGradient id="SVGID_21_" gradientUnits="userSpaceOnUse" x1="612.6055" y1="-70.248" x2="617.6611" y2="-70.248" gradientTransform="matrix(1.0426 -0.0014 0.0014 -1.0411 -448.5684 289.4775)">
	<stop  offset="0" style="stop-color:#FDFDFE;stop-opacity:0"/>
	<stop  offset="0.9104" style="stop-color:#FDFDFE;stop-opacity:0.9104"/>
	<stop  offset="1" style="stop-color:#FDFDFE"/>
</linearGradient>
<path opacity="0.74" fill="url(#SVGID_21_)" enable-background="new    " d="M195.137,360.327c0.518,0.849-0.17,2.167-1.529,2.951
	c-1.361,0.785-2.883,0.736-3.401-0.107c-0.515-0.847,0.172-2.166,1.532-2.951C193.1,359.436,194.623,359.484,195.137,360.327z"/>
</svg>
