<?xml version="1.0" encoding="utf-8"?>
<!-- Generator: Adobe Illustrator 15.0.0, SVG Export Plug-In . SVG Version: 6.00 Build 0)  -->
<!DOCTYPE svg PUBLIC "-//W3C//DTD SVG 1.1//EN" "http://www.w3.org/Graphics/SVG/1.1/DTD/svg11.dtd">
<svg version="1.1" id="Ebene_1" xmlns="http://www.w3.org/2000/svg" xmlns:xlink="http://www.w3.org/1999/xlink" x="0px" y="0px"
	 width="128px" height="128px" viewBox="0 0 128 128" enable-background="new 0 0 128 128" xml:space="preserve">
<radialGradient id="SVGID_1_" cx="925.5371" cy="-823.6504" r="52.6227" gradientTransform="matrix(1.2037 0 0 -0.2222 -1050.0706 -87.7196)" gradientUnits="userSpaceOnUse">
	<stop  offset="0" style="stop-color:#000000"/>
	<stop  offset="0.9018" style="stop-color:#000000;stop-opacity:0"/>
</radialGradient>
<ellipse fill="url(#SVGID_1_)" cx="64" cy="95.296" rx="64" ry="11.815"/>
<g>
	
		<radialGradient id="SVGID_2_" cx="298.584" cy="-273.1943" r="34.4031" gradientTransform="matrix(1 0 0 -1 -233.5996 -227.96)" gradientUnits="userSpaceOnUse">
		<stop  offset="0" style="stop-color:#FFC500"/>
		<stop  offset="1" style="stop-color:#FFC700;stop-opacity:0"/>
	</radialGradient>
	<polygon fill="url(#SVGID_2_)" points="99.445,45.234 83.629,46.781 98.98,50.9 83.123,49.836 97.585,56.427 82.123,52.748 
		95.292,61.646 80.652,55.462 92.173,66.411 78.75,57.904 88.322,70.591 76.471,59.994 83.837,74.085 73.885,61.694 78.841,76.794 
		71.057,62.935 73.447,78.648 68.081,63.683 67.822,79.577 64.984,63.942 62.146,79.579 61.889,63.683 56.521,78.648 58.904,62.931 
		51.127,76.792 56.089,61.696 46.119,74.075 53.498,60.004 41.634,70.575 51.216,57.9 37.787,66.396 49.317,55.462 34.674,61.639 
		47.843,52.742 32.384,56.427 46.846,49.838 30.987,50.902 46.341,46.781 30.523,45.234 46.341,43.683 30.987,39.563 46.846,40.627 
		32.384,34.042 47.844,37.719 34.676,28.817 49.317,35.006 37.793,24.056 51.219,32.563 41.649,19.869 53.5,30.465 46.133,16.383 
		56.085,28.773 51.131,13.671 58.907,27.533 56.531,11.817 61.893,26.779 62.146,10.889 64.984,26.527 67.827,10.889 68.077,26.779 
		73.443,11.817 71.064,27.535 78.839,13.671 73.885,28.773 83.848,16.391 76.471,30.467 88.331,19.885 78.75,32.563 92.182,24.065 
		80.654,35.008 95.296,28.819 82.127,37.723 97.585,34.039 83.123,40.625 98.98,39.562 83.629,43.683 	"/>
</g>
<radialGradient id="SVGID_3_" cx="973.3799" cy="-469.3408" r="27.3426" gradientTransform="matrix(1 0 0 -1 -905.0801 -414.7188)" gradientUnits="userSpaceOnUse">
	<stop  offset="0" style="stop-color:#FFF75F"/>
	<stop  offset="0.672" style="stop-color:#FFCE00"/>
	<stop  offset="1" style="stop-color:#FFCE00"/>
</radialGradient>
<circle fill="url(#SVGID_3_)" cx="65.482" cy="44.729" r="20.436"/>
<g opacity="0.8">
	<g>
		<rect x="45.046" y="24.715" fill="none" width="40.873" height="22.181"/>
		
			<linearGradient id="SVGID_4_" gradientUnits="userSpaceOnUse" x1="970.5635" y1="-461.6133" x2="970.5635" y2="-439.4336" gradientTransform="matrix(1 0 0 -1 -905.0801 -414.7188)">
			<stop  offset="0" style="stop-color:#FDFDFE;stop-opacity:0.2"/>
			<stop  offset="1" style="stop-color:#FDFDFE"/>
		</linearGradient>
		<path fill="url(#SVGID_4_)" d="M85.919,46.319c0,3.196-9.149-7.958-20.435-7.958c-11.291,0-20.429,10.952-20.438,7.958
			c-0.035-11.935,9.15-21.604,20.438-21.604C76.77,24.715,85.919,34.385,85.919,46.319"/>
	</g>
</g>
<polygon fill="#808080" points="91.869,89.677 40.663,89.677 91.869,72.674 "/>
<linearGradient id="SVGID_5_" gradientUnits="userSpaceOnUse" x1="970.8584" y1="-491.8208" x2="972.6451" y2="-498.2481" gradientTransform="matrix(1 0 0 -1 -905.0801 -414.7188)">
	<stop  offset="0.3531" style="stop-color:#1A1A1A"/>
	<stop  offset="0.4141" style="stop-color:#CCCCCC"/>
</linearGradient>
<path fill="url(#SVGID_5_)" d="M91.869,72.674v17.003H40.663L91.869,72.674 M93.033,70.817l-1.471,0.488L40.357,88.309l0.306,2.785
	h51.206h1.164v-1.417V72.674V70.817L93.033,70.817z"/>
<polyline fill="#E6E6E6" points="40.663,89.677 79.067,76.925 79.067,89.677 "/>
</svg>
