<?xml version="1.0" encoding="utf-8"?>
<!-- Generator: Adobe Illustrator 15.0.0, SVG Export Plug-In . SVG Version: 6.00 Build 0)  -->
<!DOCTYPE svg PUBLIC "-//W3C//DTD SVG 1.1//EN" "http://www.w3.org/Graphics/SVG/1.1/DTD/svg11.dtd">
<svg version="1.1" id="Ebene_1" xmlns="http://www.w3.org/2000/svg" xmlns:xlink="http://www.w3.org/1999/xlink" x="0px" y="0px"
	 width="128px" height="128px" viewBox="0 0 128 128" enable-background="new 0 0 128 128" xml:space="preserve">
<g>
	
		<radialGradient id="SVGID_1_" cx="796.4326" cy="189.9199" r="26.7197" gradientTransform="matrix(1.2037 0 0 -0.2222 -554.666 625.2001)" gradientUnits="userSpaceOnUse">
		<stop  offset="0" style="stop-color:#000000"/>
		<stop  offset="0.9018" style="stop-color:#000000;stop-opacity:0"/>
	</radialGradient>
	<ellipse fill="url(#SVGID_1_)" cx="404" cy="583" rx="32.5" ry="6"/>
	
		<radialGradient id="SVGID_2_" cx="854.5869" cy="189.9199" r="26.7197" gradientTransform="matrix(1.2037 0 0 -0.2222 -554.666 625.2001)" gradientUnits="userSpaceOnUse">
		<stop  offset="0" style="stop-color:#000000"/>
		<stop  offset="0.9018" style="stop-color:#000000;stop-opacity:0"/>
	</radialGradient>
	<ellipse fill="url(#SVGID_2_)" cx="474" cy="583" rx="32.5" ry="6"/>
	
		<linearGradient id="SVGID_3_" gradientUnits="userSpaceOnUse" x1="820.4531" y1="-250.4053" x2="862.8799" y2="-250.4053" gradientTransform="matrix(1 0 0 -1 -437.8799 298.2012)">
		<stop  offset="0" style="stop-color:#754C24"/>
		<stop  offset="1" style="stop-color:#42210B"/>
	</linearGradient>
	<polygon fill="url(#SVGID_3_)" points="403.787,541 423,560.213 425,558.213 403.787,537 382.573,558.213 384.573,560.213 	"/>
	
		<linearGradient id="SVGID_4_" gradientUnits="userSpaceOnUse" x1="855.3262" y1="-284.3516" x2="827.718" y2="-256.7433" gradientTransform="matrix(1 0 0 -1 -437.8799 298.2012)">
		<stop  offset="0" style="stop-color:#666666"/>
		<stop  offset="1" style="stop-color:#CCCCCC"/>
	</linearGradient>
	<path fill="url(#SVGID_4_)" d="M403.787,541L387,557.784V580h33v-22.787L403.787,541z"/>
	<g>
		
			<image overflow="visible" enable-background="new    " width="18" height="24" xlink:href="152F2E1E.png"  transform="matrix(1 0 0 1 391 541)">
		</image>
		<g>
			<polygon fill="#FFFDDE" points="403,547 397,553 397,559 403,559 			"/>
		</g>
	</g>
	<g>
		
			<image overflow="visible" enable-background="new    " width="18" height="24" xlink:href="152F2E1F.png"  transform="matrix(1 0 0 1 399 541)">
		</image>
		<g>
			<polygon fill="#FFFDDE" points="411,553 405,547 405,559 411,559 			"/>
		</g>
	</g>
	<g>
		
			<image overflow="visible" enable-background="new    " width="18" height="27" xlink:href="152F2E1A.png"  transform="matrix(1 0 0 1 391.001 558)">
		</image>
		<g>
			<rect x="397" y="564" fill="#FFFDDE" width="6" height="15"/>
		</g>
	</g>
	<g>
		
			<image overflow="visible" enable-background="new    " width="18" height="27" xlink:href="152F2E15.png"  transform="matrix(1 0 0 1 399.001 558)">
		</image>
		<g>
			<rect x="405" y="564" fill="#FFFDDE" width="6" height="15"/>
		</g>
	</g>
	<line fill="none" stroke="#42210B" x1="384.573" y1="559.713" x2="403.787" y2="540.5"/>
	<line opacity="0.58" fill="none" stroke="#C69C6D" enable-background="new    " x1="403.787" y1="540.5" x2="423" y2="559.713"/>
	
		<linearGradient id="SVGID_5_" gradientUnits="userSpaceOnUse" x1="890.4531" y1="-250.4053" x2="932.8799" y2="-250.4053" gradientTransform="matrix(1 0 0 -1 -437.8799 298.2012)">
		<stop  offset="0" style="stop-color:#754C24"/>
		<stop  offset="1" style="stop-color:#42210B"/>
	</linearGradient>
	<polygon fill="url(#SVGID_5_)" points="473.787,541 493,560.213 495,558.213 473.787,537 452.573,558.213 454.573,560.213 	"/>
	
		<linearGradient id="SVGID_6_" gradientUnits="userSpaceOnUse" x1="925.3271" y1="-284.3511" x2="897.7195" y2="-256.7436" gradientTransform="matrix(1 0 0 -1 -437.8799 298.2012)">
		<stop  offset="0" style="stop-color:#666666"/>
		<stop  offset="1" style="stop-color:#CCCCCC"/>
	</linearGradient>
	<path fill="url(#SVGID_6_)" d="M473.787,541L457,557.784V580h33v-22.787L473.787,541z"/>
	<polygon fill="#4D4D4D" points="473,547 467,553 467,559 473,559 	"/>
	<polygon fill="#4D4D4D" points="481,553 475,547 475,559 481,559 	"/>
	<rect x="467" y="564" fill="#4D4D4D" width="6" height="15"/>
	<rect x="475" y="564" fill="#4D4D4D" width="6" height="15"/>
	<line fill="none" stroke="#42210B" x1="454.573" y1="559.713" x2="473.787" y2="540.5"/>
	<line opacity="0.58" fill="none" stroke="#C69C6D" enable-background="new    " x1="473.787" y1="540.5" x2="493" y2="559.713"/>
</g>
<g>
	
		<radialGradient id="SVGID_7_" cx="537.2383" cy="2355.2598" r="52.6214" gradientTransform="matrix(1.2037 0 0 -0.2222 -582.666 625.2001)" gradientUnits="userSpaceOnUse">
		<stop  offset="0" style="stop-color:#000000"/>
		<stop  offset="0.9018" style="stop-color:#000000;stop-opacity:0"/>
	</radialGradient>
	<ellipse fill="url(#SVGID_7_)" cx="64.007" cy="101.861" rx="64" ry="11.815"/>
	<path fill="#CCCCCC" d="M98.991,24.125l-0.657-0.66c-0.585-0.583-1.599-0.583-2.183,0L38.672,80.946
		c-0.291,0.286-0.449,0.679-0.449,1.09c0,0.412,0.16,0.8,0.449,1.091l0.659,0.657c0.289,0.293,0.679,0.452,1.09,0.452
		c0.414,0,0.801-0.159,1.094-0.452l57.48-57.477C99.592,25.706,99.592,24.727,98.991,24.125z"/>
	<g>
		<path fill="#8C6239" d="M42.226,82.77l-2.724-2.724c-0.112-0.107-0.287-0.107-0.398,0l-7.3,7.298
			c-0.688,0.581-1.436,0.869-2.223,0.869c-1.952,0-3.539-1.586-3.539-3.536c0-0.975,0.389-1.885,1.1-2.56
			c0.056-0.052,0.087-0.121,0.087-0.198s-0.028-0.149-0.081-0.206l-2.702-2.701c-0.109-0.108-0.284-0.11-0.393-0.002
			c-1.539,1.51-2.388,3.515-2.388,5.663c0,4.365,3.551,7.919,7.917,7.919c2.405,0,4.649-1.072,6.161-2.949l6.481-6.481
			C42.334,83.056,42.334,82.877,42.226,82.77z"/>
	</g>
	<g>
		<g>
			<path fill="#0071BC" d="M97.342,88.105c-0.202-6.909-5.777-12.321-12.692-12.321c-1.031,0-2.065,0.121-3.073,0.377l-1.486,0.367
				l0.282-1.504c0.146-0.788,0.222-1.59,0.222-2.367c0-7.009-5.698-12.703-12.703-12.703c-1.867,0-3.669,0.397-5.356,1.183
				l-2.531,1.185l1.23-2.506c0.861-1.746,1.297-3.627,1.297-5.591c0-7.006-5.699-12.705-12.702-12.705
				c-0.738,0-1.5,0.068-2.265,0.207l-1.616,0.287l0.506-1.562c0.411-1.271,0.62-2.589,0.62-3.923
				c0-6.929-5.638-12.621-12.567-12.692l-3.267-0.039l2.743-1.771c7.688-4.981,16.613-7.613,25.808-7.613
				c26.215,0,47.544,21.327,47.544,47.542c0,9.568-2.831,18.794-8.19,26.681l-1.71,2.515L97.342,88.105z"/>
			<path fill="#29ABE2" d="M59.787,15.392c25.714,0,46.559,20.844,46.559,46.558c0,9.683-2.958,18.677-8.02,26.133
				c-0.216-7.372-6.254-13.279-13.677-13.279c-1.143,0-2.25,0.143-3.312,0.406c0.153-0.825,0.238-1.682,0.238-2.547
				c0-7.56-6.127-13.688-13.688-13.688c-2.062,0-4.016,0.46-5.772,1.277c0.895-1.823,1.396-3.861,1.396-6.031
				c0-7.56-6.128-13.69-13.687-13.69c-0.835,0-1.646,0.081-2.438,0.224c0.431-1.331,0.669-2.748,0.669-4.225
				c0-7.508-6.049-13.604-13.542-13.681C41.794,18.129,50.473,15.392,59.787,15.392 M59.787,13.423
				c-9.388,0-18.498,2.687-26.345,7.771l-5.486,3.554l6.536,0.069c6.392,0.067,11.593,5.321,11.593,11.713
				c0,1.219-0.193,2.438-0.573,3.618l-1.013,3.125l3.233-0.581c0.705-0.127,1.411-0.196,2.092-0.196
				c6.462,0,11.717,5.258,11.717,11.721c0,1.81-0.401,3.545-1.192,5.156l-2.464,5.012l5.062-2.358
				c1.558-0.725,3.22-1.092,4.941-1.092c6.461,0,11.718,5.256,11.718,11.719c0,0.722-0.068,1.458-0.203,2.182l-0.562,3.009
				l2.971-0.738c0.929-0.23,1.885-0.348,2.837-0.348c6.381,0,11.522,4.992,11.709,11.363l0.18,6.083l3.417-5.035
				c5.467-8.05,8.359-17.467,8.359-27.234C108.314,35.192,86.545,13.423,59.787,13.423L59.787,13.423z"/>
		</g>
	</g>
	<path fill="#29ABE2" d="M61.165,59.899l30.173-31.38c-8.396-8.229-19.896-13.304-32.581-13.304c-9.314,0-17.995,2.738-25.273,7.454
		c7.493,0.079,13.542,6.173,13.542,13.677c0,1.477-0.238,2.9-0.67,4.227c0.792-0.143,1.604-0.224,2.438-0.224
		c7.558,0,13.687,6.131,13.687,13.69C62.482,56.143,62.006,58.127,61.165,59.899z"/>
	<g>
		<path fill="#0071BC" d="M47.1,36.35c0,1.477-0.237,2.9-0.668,4.227c0.074-0.014,0.147-0.023,0.225-0.041
			c4.954-5.221,13.959-9.804,24.753-11.992c6.933-1.404,13.574-1.604,19.181-0.813c-8.317-7.759-19.483-12.515-31.76-12.515
			c-9.316,0-17.995,2.738-25.273,7.454C41.049,22.748,47.1,28.842,47.1,36.35z"/>
	</g>
	<g>
		<path fill="#29ABE2" d="M91.922,28.838c2.862,6.91,2.304,18.292-2.096,29.989c-2.389,6.355-5.563,11.886-9.042,16.149
			c-0.016,0.075-0.025,0.152-0.039,0.226c1.062-0.264,2.169-0.406,3.312-0.406c7.425,0,13.462,5.908,13.679,13.279
			c5.06-7.45,8.018-16.448,8.018-26.133C105.753,48.994,100.461,37.279,91.922,28.838z"/>
	</g>
	<g>
		
			<linearGradient id="SVGID_8_" gradientUnits="userSpaceOnUse" x1="506.2275" y1="250.2607" x2="516.6922" y2="279.0122" gradientTransform="matrix(1 0 0 -1 -437.8799 298.2012)">
			<stop  offset="0" style="stop-color:#FDFDFE;stop-opacity:0"/>
			<stop  offset="1" style="stop-color:#FDFDFE"/>
		</linearGradient>
		<path fill="url(#SVGID_8_)" d="M64.629,32.535c16.205,0.744,31.659,10.614,41.717,29.237
			C105.6,36.259,85.501,15.215,59.787,15.215c-9.314,0-17.996,2.738-25.273,7.454C42.007,22.748,48.43,31.79,64.629,32.535z"/>
	</g>
	<rect id="_x3C_Slice_x3E__1_" x="0.007" y="7.338" fill="none" width="128" height="108.308"/>
	<rect id="_x3C_Slice_x3E__2_" x="0.007" y="7.338" fill="none" width="128" height="108.308"/>
	<rect id="_x3C_Slice_x3E__15_" x="0.007" y="7.338" fill="none" width="128" height="108.308"/>
	<rect id="_x3C_Slice_x3E__16_" x="0.007" y="7.338" fill="none" width="128" height="108.308"/>
	<rect id="_x3C_Slice_x3E__17_" x="0.007" y="7.338" fill="none" width="128" height="108.308"/>
	<rect id="_x3C_Slice_x3E__18_" x="0.007" y="7.338" fill="none" width="128" height="108.308"/>
	<rect id="_x3C_Slice_x3E__19_" x="0.007" y="7.338" fill="none" width="128" height="108.308"/>
	<rect id="_x3C_Slice_x3E__20_" x="0.007" y="7.338" fill="none" width="128" height="108.308"/>
	<rect id="_x3C_Slice_x3E__21_" x="0.007" y="7.338" fill="none" width="128" height="108.308"/>
	<rect id="_x3C_Slice_x3E__22_" x="0.007" y="7.338" fill="none" width="128" height="108.308"/>
	<rect id="_x3C_Slice_x3E__23_" x="0.007" y="7.338" fill="none" width="128" height="108.308"/>
	<rect id="_x3C_Slice_x3E__24_" x="0.007" y="7.338" fill="none" width="128" height="108.308"/>
	<rect id="_x3C_Slice_x3E__25_" x="0.007" y="7.338" fill="none" width="128" height="108.308"/>
	<rect id="_x3C_Slice_x3E__26_" x="0.007" y="7.338" fill="none" width="128" height="108.308"/>
	<rect id="_x3C_Slice_x3E__27_" x="0.007" y="7.338" fill="none" width="128" height="108.308"/>
</g>
</svg>
