<?xml version="1.0" encoding="UTF-8" standalone="no"?>
<!-- Created with Inkscape (http://www.inkscape.org/) -->

<svg
   xmlns:svg="http://www.w3.org/2000/svg"
   xmlns="http://www.w3.org/2000/svg"
   version="1.1"
   width="550"
   height="120"
   viewBox="0 0 550 120"
   id="Ebene_1"
   xml:space="preserve"><defs
   id="defs199" />
<g
   id="g3">
	<g
   id="g5">
		<g
   id="g7">
			<rect
   width="8.1339998"
   height="18"
   x="442.84601"
   y="62"
   id="rect9" />
			<rect
   width="8.1379995"
   height="18"
   x="434.70801"
   y="62"
   id="rect11"
   style="fill:#ffffff" />
		</g>
	</g>
	<g
   id="g13">
		<g
   id="g15">
			<rect
   width="7.1350002"
   height="18"
   x="385.742"
   y="62"
   id="rect17" />
			<rect
   width="7.1389999"
   height="18"
   x="378.604"
   y="62"
   id="rect19"
   style="fill:#ffffff" />
		</g>
	</g>
	<g
   id="g21">
		<g
   id="g23">
			<rect
   width="6.2579999"
   height="18"
   x="335.651"
   y="62"
   id="rect25" />
			<rect
   width="6.263"
   height="18"
   x="329.38901"
   y="62"
   id="rect27"
   style="fill:#ffffff" />
		</g>
	</g>
	<g
   id="g29">
		<g
   id="g31">
			<rect
   width="5.4889998"
   height="18"
   x="291.71201"
   y="62"
   id="rect33" />
			<rect
   width="5.494"
   height="18"
   x="286.21799"
   y="62"
   id="rect35"
   style="fill:#ffffff" />
		</g>
	</g>
	<g
   id="g37">
		<g
   id="g39">
			<rect
   width="4.8150001"
   height="18"
   x="253.168"
   y="62"
   id="rect41" />
			<rect
   width="4.8200002"
   height="18"
   x="248.349"
   y="62"
   id="rect43"
   style="fill:#ffffff" />
		</g>
	</g>
	<g
   id="g45">
		<g
   id="g47">
			<rect
   width="4.224"
   height="18"
   x="219.358"
   y="62"
   id="rect49" />
			<rect
   width="4.2280002"
   height="18"
   x="215.13"
   y="62"
   id="rect51"
   style="fill:#ffffff" />
		</g>
	</g>
	<g
   id="g53">
		<g
   id="g55">
			<rect
   width="3.7060001"
   height="18"
   x="189.7"
   y="62"
   id="rect57" />
			<rect
   width="3.7079999"
   height="18"
   x="185.992"
   y="62"
   id="rect59"
   style="fill:#ffffff" />
		</g>
	</g>
	<g
   id="g61">
		<g
   id="g63">
			<rect
   width="3.25"
   height="18"
   x="163.685"
   y="62"
   id="rect65" />
			<rect
   width="3.253"
   height="18"
   x="160.431"
   y="62"
   id="rect67"
   style="fill:#ffffff" />
		</g>
	</g>
	<g
   id="g69">
		<g
   id="g71">
			<rect
   width="2.8510001"
   height="18"
   x="140.864"
   y="62"
   id="rect73" />
			<rect
   width="2.8540001"
   height="18"
   x="138.00999"
   y="62"
   id="rect75"
   style="fill:#ffffff" />
		</g>
	</g>
	<g
   id="g77">
		<g
   id="g79">
			<rect
   width="2.5009999"
   height="18"
   x="120.845"
   y="62"
   id="rect81" />
			<rect
   width="2.503"
   height="18"
   x="118.342"
   y="62"
   id="rect83"
   style="fill:#ffffff" />
		</g>
	</g>
	<g
   id="g85">
		<g
   id="g87">
			<rect
   width="2.194"
   height="18"
   x="103.285"
   y="62"
   id="rect89" />
			<rect
   width="2.1960001"
   height="18"
   x="101.089"
   y="62"
   id="rect91"
   style="fill:#ffffff" />
		</g>
	</g>
	<g
   id="g93">
		<g
   id="g95">
			<rect
   width="1.924"
   height="18"
   x="87.882004"
   y="62"
   id="rect97" />
			<rect
   width="1.926"
   height="18"
   x="85.956001"
   y="62"
   id="rect99"
   style="fill:#ffffff" />
		</g>
	</g>
	<g
   id="g101">
		<g
   id="g103">
			<rect
   width="1.688"
   height="18"
   x="74.370003"
   y="62"
   id="rect105" />
			<rect
   width="1.6900001"
   height="18"
   x="72.68"
   y="62"
   id="rect107"
   style="fill:#ffffff" />
		</g>
	</g>
	<g
   id="g109">
		<g
   id="g111">
			<rect
   width="1.4809999"
   height="18"
   x="62.518002"
   y="62"
   id="rect113" />
			<rect
   width="1.482"
   height="18"
   x="61.035"
   y="62"
   id="rect115"
   style="fill:#ffffff" />
		</g>
	</g>
	<g
   id="g117">
		<g
   id="g119">
			<rect
   width="1.299"
   height="18"
   x="52.120998"
   y="62"
   id="rect121" />
			<rect
   width="1.3"
   height="18"
   x="50.82"
   y="62"
   id="rect123"
   style="fill:#ffffff" />
		</g>
	</g>
	<g
   id="g125">
		<g
   id="g127">
			<rect
   width="1.14"
   height="18"
   x="43"
   y="62"
   id="rect129" />
			<rect
   width="1.141"
   height="18"
   x="41.860001"
   y="62"
   id="rect131"
   style="fill:#ffffff" />
		</g>
	</g>
	<g
   id="g133">
		<g
   id="g135">
			<rect
   width="1"
   height="18"
   x="35"
   y="62"
   id="rect137" />
			<rect
   width="1"
   height="18"
   x="34"
   y="62"
   id="rect139"
   style="fill:#ffffff" />
		</g>
	</g>
</g>
<g
   id="g141">
	<rect
   width="1"
   height="28"
   x="26"
   y="61"
   id="rect143" />
	<rect
   width="1"
   height="28"
   x="25"
   y="61"
   id="rect145"
   style="fill:#ffffff" />
</g>
<g
   id="g147">
	<rect
   width="12.109"
   height="28"
   x="490.10901"
   y="61.000999"
   id="rect149" />
	<rect
   width="12.109"
   height="28"
   x="478"
   y="61.000999"
   id="rect151"
   style="fill:#ffffff" />
</g>
<g
   id="g153">
	<text
   transform="matrix(1.0101,0,0,1,9,116)"
   id="text155"
   style="font-size:21px;fill:#ffffff;font-family:MyriadPro-Regular">1 lx</text>

</g>
<g
   id="g157">
	<text
   transform="matrix(1.0101,0,0,1,449,116)"
   id="text159"
   style="font-size:21px;fill:#ffffff;font-family:MyriadPro-Regular">100.000 lx</text>

</g>
<g
   id="g161">
	<linearGradient
   x1="263.99951"
   y1="2"
   x2="263.99951"
   y2="52"
   id="SVGID_1_"
   gradientUnits="userSpaceOnUse">
		<stop
   id="stop164"
   style="stop-color:#262626;stop-opacity:1"
   offset="0" />
		<stop
   id="stop166"
   style="stop-color:#3a3a3a;stop-opacity:1"
   offset="0.0828" />
		<stop
   id="stop168"
   style="stop-color:#858585;stop-opacity:1"
   offset="0.4131" />
		<stop
   id="stop170"
   style="stop-color:#bcbcbc;stop-opacity:1"
   offset="0.68669999" />
		<stop
   id="stop172"
   style="stop-color:#dedede;stop-opacity:1"
   offset="0.88980001" />
		<stop
   id="stop174"
   style="stop-color:#ebebeb;stop-opacity:1"
   offset="1" />
	</linearGradient>
	<path
   d="m 524,27 c 0,13.75 -11.25,25 -25,25 H 29 C 15.25,52 4,40.75 4,27 l 0,0 C 4,13.25 15.25,2 29,2 h 470 c 13.75,0 25,11.25 25,25 l 0,0 z"
   id="path176"
   style="fill:url(#SVGID_1_)" />
	<linearGradient
   x1="7"
   y1="27"
   x2="521"
   y2="27"
   id="SVGID_2_"
   gradientUnits="userSpaceOnUse">
		<stop
   id="stop179"
   style="stop-color:#000000;stop-opacity:1"
   offset="0" />
		<stop
   id="stop181"
   style="stop-color:#191919;stop-opacity:1"
   offset="0.0675" />
		<stop
   id="stop183"
   style="stop-color:#5e5e5e;stop-opacity:1"
   offset="0.2674" />
		<stop
   id="stop185"
   style="stop-color:#979797;stop-opacity:1"
   offset="0.4567" />
		<stop
   id="stop187"
   style="stop-color:#c4c4c4;stop-opacity:1"
   offset="0.62980002" />
		<stop
   id="stop189"
   style="stop-color:#e4e4e4;stop-opacity:1"
   offset="0.78350002" />
		<stop
   id="stop191"
   style="stop-color:#f8f8f8;stop-opacity:1"
   offset="0.91210002" />
		<stop
   id="stop193"
   style="stop-color:#ffffff;stop-opacity:1"
   offset="1" />
	</linearGradient>
	<path
   d="M 29,49 C 16.869,49 7,39.131 7,27 7,14.869 16.869,5 29,5 h 470 c 12.131,0 22,9.869 22,22 0,12.131 -9.869,22 -22,22 H 29 z"
   id="path195"
   style="fill:url(#SVGID_2_)" />
</g>
</svg>